<!--Usage in HTML-->
<svg viewBox="0 0 32 32" class="sns_icon"><use xlink:href="#facebook"/></svg>
<svg viewBox="0 0 32 32" class="sns_icon"><use xlink:href="#linkedin"/></svg>
<!--icons and logos-->
<svg xmlns="http://www.w3.org/2000/svg" style="display:none">
	<!-- icons made by https://github.com/danklammer/bytesize-icons -->
	<symbol id="i-info" viewBox="0 0 32 32" width="32" height="32" fill="#4caf50" stroke="#4caf50" stroke-linecap="round" stroke-linejoin="round" stroke-width="2">
		<circle cx="16" cy="16" r="14" />
		<path fill="none" stroke="#dcedc8" d="M16 14 L16 23 M16 8 L16 10" />
	</symbol>
	<symbol id="i-phone" viewBox="0 0 32 32" width="32" height="32" fill="none" stroke="currentcolor" stroke-linecap="round" stroke-linejoin="round" stroke-width="2">
		<path d="M3 12 C3 5 10 5 16 5 22 5 29 5 29 12 29 20 22 11 22 11 L10 11 C10 11 3 20 3 12 Z M11 14 C11 14 6 19 6 28 L26 28 C26 19 21 14 21 14 L11 14 Z" />
		<circle cx="16" cy="21" r="4" />
	</symbol>
	<symbol id="i-location" viewBox="0 0 32 32" width="32" height="32" fill="none" stroke="currentcolor" stroke-linecap="round" stroke-linejoin="round" stroke-width="2">
	<circle cx="16" cy="11" r="4" />
	<path d="M24 15 C21 22 16 30 16 30 16 30 11 22 8 15 5 8 10 2 16 2 22 2 27 8 24 15 Z" />
	</symbol>
	<symbol id="i-mail" viewBox="0 0 32 32" width="32" height="32" fill="none" stroke="currentcolor" stroke-linecap="round" stroke-linejoin="round" stroke-width="2">
	<path d="M2 26 L30 26 30 6 2 6 Z M2 6 L16 16 30 6" />
	</symbol>
	<symbol id="i-archive" viewBox="0 0 32 32" width="32" height="32" fill="none" stroke="currentcolor" stroke-linecap="round" stroke-linejoin="round" stroke-width="2">
	<path d="M4 10 L4 28 28 28 28 10 M2 4 L2 10 30 10 30 4 Z M12 15 L20 15" />
	</symbol>
	<symbol id="i-chevron-top" viewBox="0 0 32 32" width="32" height="32" fill="none" stroke="currentcolor" stroke-linecap="round" stroke-linejoin="round" stroke-width="2">
		<!--text x="2" y="31">TOP</text-->
		<path d="M30 20 L16 8 2 20" />
	</symbol>
	<symbol id="mail" viewBox="0 0 48 48">
    <path fill="#B3B3B3" d="M46,41H2c-0.55228,0-1-0.44772-1-1V8c0-0.55228,0.44772-1,1-1h44c0.55228,0,1,0.44772,1,1v32 C47,40.55228,46.55228,41,46,41z"></path> <path fill="#D6D6D6" d="M24,19c0.24121,0,0.48193,0.08691,0.67285,0.25977l22,20c0.30566,0.27832,0.40869,0.71582,0.25977,1.10059 C46.78369,40.74609,46.41309,41,46,41H2c-0.41309,0-0.78369-0.25391-0.93262-0.63965 c-0.14893-0.38477-0.0459-0.82227,0.25977-1.10059l22-20C23.51807,19.08691,23.75879,19,24,19z"></path> <path fill="#E6E6E6" d="M24,29c-0.24121,0-0.48193-0.08691-0.67285-0.25977l-22-20C1.02148,8.46191,0.91846,8.02441,1.06738,7.63965 C1.21631,7.25391,1.58691,7,2,7h44c0.41309,0,0.78369,0.25391,0.93262,0.63965c0.14893,0.38477,0.0459,0.82227-0.25977,1.10059 l-22,20C24.48193,28.91309,24.24121,29,24,29z"></path>
  </symbol>
  <symbol id="facebook" viewBox="0 0 48 48">
    <path fill="#BCBCBD" d="M18.06306,46L18,26h-8v-8h8v-5c0-7.42279,4.59664-11,11.21828-11 c3.17183,0,5.89786,0.23615,6.6923,0.3417v7.75726l-4.59246,0.00209c-3.60122,0-4.2985,1.71125-4.2985,4.22238V18H37.5l-4,8 h-6.48038v20H18.06306z"></path>
  </symbol>
  <symbol id="linkedin" viewBox="0 0 48 48">
    <path fill="#BCBCBD" d="M44.44853,0H3.54103C1.58791,0,0.00067,1.54948,0.00067,3.46093V44.5364 C0.00067,46.44787,1.58791,48,3.54103,48h40.90751c1.95707,0,3.5508-1.55213,3.5508-3.4636V3.46093 C47.99933,1.54948,46.4056,0,44.44853,0z"></path> 
    <path fill="#FFFFFF" d="M7.11264,17.9948h7.12629v22.90627H7.11264V17.9948z M10.67775,6.60807 c2.27735,0,4.12625,1.84961,4.12625,4.12827c0,2.27929-1.84891,4.12887-4.12625,4.12887c-2.28645,0-4.1302-1.84957-4.1302-4.12887 C6.54755,8.45768,8.39129,6.60807,10.67775,6.60807"></path> 
    <path fill="#FFFFFF" d="M18.70507,17.9948h6.82427v3.13147h0.0976c0.9492-1.8008,3.27213-3.69987,6.73573-3.69987 c7.20827,0,8.5404,4.74293,8.5404,10.91213v12.56253h-7.11853V29.76173c0-2.65627-0.0456-6.0736-3.6992-6.0736 c-3.7044,0-4.2696,2.8952-4.2696,5.88347v11.32947h-7.11067V17.9948z"></path>
  </symbol>
</svg>
